# Made in Blockbench 4.5.2
mtllib materials.mtl

o pyramid
v 0 0.5 0
v 0.5 -0.5 0.5
v 0.5 -0.5 -0.5
v -0.5 -0.5 0.5
v -0.5 -0.5 -0.5
vt 1 0
vt 1 1
vt 0 1
vt 0 0
vt 0 -0.007781250000000073
vt 1 -0.007781250000000073
vt 0.5 1
vt 0 -0.007781250000000073
vt 1 -0.007781250000000073
vt 0.5 1
vt 0 -0.007781250000000073
vt 1 -0.007781250000000073
vt 0.5 1
vt 0 -0.007781250000000073
vt 1 -0.007781250000000073
vt 0.5 1
vn 0 -1 0
vn 0 0.44721359549995804 0.8944271909999161
vn 0 0.44721359549995804 -0.8944271909999161
vn -0.8944271909999161 0.44721359549995804 0
vn 0.8944271909999161 0.44721359549995804 0
usemtl none
f 3/1/1 2/2/1 4/3/1 5/4/1
f 4/5/2 2/6/2 1/7/2
f 3/8/3 5/9/3 1/10/3
f 5/11/4 4/12/4 1/13/4
f 2/14/5 3/15/5 1/16/5