# Made in Blockbench 4.5.2
mtllib materials.mtl

o cone
v 0 -0.5 0
v 0 0.5 0
v 0.13397459621556132 -0.5 0.49999999999999994
v 0.3660254037844386 -0.5 0.36602540378443865
v 0.49999999999999994 -0.5 0.13397459621556132
v 0.49999999999999994 -0.5 -0.13397459621556138
v 0.36602540378443865 -0.5 -0.3660254037844386
v 0.1339745962155615 -0.5 -0.4999999999999999
v -0.13397459621556113 -0.5 -0.5
v -0.3660254037844386 -0.5 -0.3660254037844387
v -0.49999999999999994 -0.5 -0.13397459621556126
v -0.5 -0.5 0.1339745962155611
v -0.3660254037844387 -0.5 0.36602540378443854
v -0.1339745962155613 -0.5 0.49999999999999994
vt 0.5176375191676121 0.7411812404161939
vt 0.44828802160274145 1
vt 0 0.7411812404161939
vt 0 -0.11803125000000003
vt 0.26795 -0.11803125000000003
vt 0.133975 1
vt 0.5176381947122913 0.7411815781880927
vt 0.44828743656363346 1
vt 0 0.7411815781880928
vt 0 -0.11803125000000003
vt 0.26795 -0.11803125000000003
vt 0.133975 1
vt 0.5 0.73205
vt 0.5 1
vt 0 0.866025
vt 0 -0.11803125000000003
vt 0.26795 -0.11803125000000003
vt 0.133975 1
vt 5.551115123125783e-17 0.48236248083238786
vt 0.25881875958380607 0.5517119783972586
vt 0 1
vt 0 -0.11803125000000003
vt 0.26795 -0.11803125000000003
vt 0.133975 1
vt 0 0.48236180528770867
vt 0.2588184218119073 0.5517125634363665
vt 8.326672684688674e-17 1
vt 0 -0.11803125000000003
vt 0.26795 -0.11803125000000003
vt 0.133975 1
vt 0 0.5
vt 0.26795 0.5
vt 0.133975 1
vt 0 -0.11803125000000003
vt 0.26795 -0.11803125000000003
vt 0.133975 1
vt 0 1
vt 0.06934949756487069 0.7411812404161939
vt 0.5176375191676121 1
vt 0 -0.11803125000000003
vt 0.26795 -0.11803125000000003
vt 0.133975 1
vt 0 1
vt 0.06935075814865788 0.7411815781880927
vt 0.5176381947122913 0.9999999999999999
vt 0 -0.11803125000000003
vt 0.26795 -0.11803125000000003
vt 0.133975 1
vt 0 1
vt 0 0.73205
vt 0.5 0.866025
vt 0 -0.11803125000000003
vt 0.26795 -0.11803125000000003
vt 0.133975 1
vt 0.258818759583806 1
vt 0 0.9306505024351293
vt 0.25881875958380607 0.48236248083238786
vt 0 -0.11803125000000003
vt 0.26795 -0.11803125000000003
vt 0.133975 1
vt 0.2588184218119073 1
vt 0 0.9306492418513421
vt 0.2588184218119072 0.48236180528770867
vt 0 -0.11803125000000003
vt 0.26795 -0.11803125000000003
vt 0.133975 1
vt 0.26795 1
vt 0 1
vt 0.133975 0.5
vt 0 -0.11803125000000003
vt 0.26795 -0.11803125000000003
vt 0.133975 1
vn 0 -1 0
vn 0.4472135954999578 0.4472135954999579 0.7745966692414835
vn 0 -1 0
vn 0.7745966692414834 0.44721359549995787 0.44721359549995787
vn 0 -1 0
vn 0.8944271909999161 0.447213595499958 0
vn 0 -1 0
vn 0.7745966692414835 0.4472135954999579 -0.4472135954999579
vn 0 -1 0
vn 0.447213595499958 0.447213595499958 -0.7745966692414834
vn 0 -1 0
vn 3.7059774365775244e-16 0.44721359549995804 -0.8944271909999161
vn 0 -1 0
vn -0.4472135954999576 0.447213595499958 -0.7745966692414837
vn 0 -1 0
vn -0.7745966692414835 0.44721359549995787 -0.4472135954999577
vn 0 -1 0
vn -0.894427190999916 0.44721359549995787 -1.8529887182887634e-16
vn 0 -1 0
vn -0.7745966692414836 0.44721359549995787 0.4472135954999576
vn 0 -1 0
vn -0.44721359549995787 0.44721359549995787 0.7745966692414834
vn 0 -1 0
vn 0 0.4472135954999579 0.894427190999916
usemtl none
f 4/1/1 3/2/1 1/3/1
f 3/4/2 4/5/2 2/6/2
f 5/7/3 4/8/3 1/9/3
f 4/10/4 5/11/4 2/12/4
f 6/13/5 5/14/5 1/15/5
f 5/16/6 6/17/6 2/18/6
f 7/19/7 6/20/7 1/21/7
f 6/22/8 7/23/8 2/24/8
f 8/25/9 7/26/9 1/27/9
f 7/28/10 8/29/10 2/30/10
f 9/31/11 8/32/11 1/33/11
f 8/34/12 9/35/12 2/36/12
f 10/37/13 9/38/13 1/39/13
f 9/40/14 10/41/14 2/42/14
f 11/43/15 10/44/15 1/45/15
f 10/46/16 11/47/16 2/48/16
f 12/49/17 11/50/17 1/51/17
f 11/52/18 12/53/18 2/54/18
f 13/55/19 12/56/19 1/57/19
f 12/58/20 13/59/20 2/60/20
f 14/61/21 13/62/21 1/63/21
f 13/64/22 14/65/22 2/66/22
f 3/67/23 14/68/23 1/69/23
f 14/70/24 3/71/24 2/72/24